# Blender v2.65 (sub 0) OBJ File: 'crate.blend'
# www.blender.org
o Cube
v 1.000000 -1.000000 -1.000000
v 1.000000 -1.000000 1.000000
v -1.000000 -1.000000 1.000000
v -1.000000 -1.000000 -1.000000
v 1.000000 1.000000 -0.999999
v 0.999999 1.000000 1.000001
v -1.000000 1.000000 1.000000
v -1.000000 1.000000 -1.000000
v 1.078014 -1.078014 -1.078014
v 1.078014 -1.078014 1.078014
v -1.078014 -1.078014 1.078014
v -1.078014 -1.078014 -1.078015
v 1.078015 1.078014 -1.078014
v 1.078014 1.078014 1.078015
v -1.078015 1.078014 1.078014
v -1.078014 1.078014 -1.078014
v 1.078014 -1.078014 -0.970213
v -1.078014 -1.078014 -0.970213
v 1.078015 1.078014 -0.970212
v -1.078014 1.078014 -0.970213
v -1.078015 1.078014 0.975603
v -1.078014 -1.078014 0.975603
v 1.078014 1.078014 0.975604
v 1.078014 -1.078014 0.975603
v -0.970212 -1.078014 -0.970213
v -0.970213 1.078014 -0.970213
v -0.970213 1.078014 0.975603
v -0.970213 -1.078014 0.975603
v -0.970212 -1.078014 -1.078015
v -0.970213 -1.078014 1.078014
v -0.970213 1.078014 -1.078014
v -0.970213 1.078014 1.078014
v 0.975603 -1.078014 -0.970213
v 0.975603 -1.078014 0.975603
v 0.975603 -1.078014 -1.078014
v 0.975602 1.078014 1.078015
v 0.975603 -1.078014 1.078014
v 0.975604 1.078014 -1.078014
v 0.975602 1.078014 0.975604
v 0.975603 1.078014 -0.970212
v 1.078015 0.970213 -1.078014
v 1.078014 0.970213 1.078015
v -1.078015 0.970213 1.078014
v -1.078014 0.970213 -1.078014
v 1.078015 0.970213 -0.970212
v -1.078014 0.970213 -0.970213
v -1.078015 0.970213 0.975603
v 1.078014 0.970213 0.975604
v -0.970213 0.970213 -1.078014
v -0.970213 0.970213 1.078014
v 0.975603 0.970213 -1.078014
v 0.975602 0.970213 1.078015
v 0.975603 -0.975603 -1.078014
v -0.970212 -0.975603 -1.078015
v -1.078014 -0.975603 -1.078015
v -1.078014 -0.975603 1.078014
v 1.078014 -0.975603 1.078014
v 1.078014 -0.975603 -1.078014
v 0.975603 -0.975603 1.078014
v -0.970213 -0.975603 1.078014
v 1.078014 -0.975603 0.975603
v -1.078014 -0.975603 0.975603
v -1.078014 -0.975603 -0.970213
v 1.078014 -0.975603 -0.970213
vt 0.218750 0.562500
vt 0.437500 0.562500
vt 0.437500 0.781250
vt 0.218750 0.781250
vt 0.000000 0.781250
vt 0.000000 0.562500
vt 0.437500 1.000000
vt 0.218750 1.000000
vt 0.000000 1.000000
vt 0.656250 0.781250
vt 0.656250 1.000000
vt 0.656250 0.562500
vt 0.531250 0.312500
vt 0.500000 0.312500
vt 0.500000 0.281250
vt 0.531250 0.281250
vt 0.031250 0.312500
vt 0.000000 0.312500
vt 0.000000 0.281250
vt 0.031250 0.281250
vt 0.281250 0.500000
vt 0.281250 0.531250
vt 0.250000 0.531250
vt 0.250000 0.500000
vt 0.031250 0.250000
vt 0.000000 0.250000
vt 0.468750 0.062500
vt 0.468750 0.031250
vt 0.500000 0.031250
vt 0.500000 0.062500
vt 0.531250 0.062500
vt 0.531250 0.031250
vt 0.750000 0.312500
vt 0.718750 0.312500
vt 0.718750 0.281250
vt 0.750000 0.281250
vt 0.031250 0.531250
vt 0.000000 0.531250
vt 0.000000 0.500000
vt 0.031250 0.500000
vt 0.500000 0.500000
vt 0.500000 0.531250
vt 0.468750 0.531250
vt 0.468750 0.500000
vt 0.281250 0.062500
vt 0.281250 0.031250
vt 0.250000 0.062500
vt 0.250000 0.031250
vt 0.218750 0.312500
vt 0.218750 0.281250
vt 0.218750 0.531250
vt 0.218750 0.500000
vt 0.281250 0.312500
vt 0.250000 0.312500
vt 0.531250 0.500000
vt 0.718750 0.062500
vt 0.718750 0.031250
vt 0.218750 0.250000
vt 0.750000 0.500000
vt 0.718750 0.500000
vt 0.750000 0.062500
vt 0.750000 0.031250
vt 0.250000 0.250000
vt 0.250000 0.281250
vt 0.531250 0.531250
vt 0.718750 0.531250
vt 0.750000 0.531250
vt 0.031250 0.062500
vt 0.000000 0.062500
vt 0.468750 0.250000
vt 0.500000 0.250000
vt 0.531250 0.250000
vt 0.468750 0.312500
vt 0.281250 0.250000
vt 0.312500 0.468750
vt 0.312500 0.343750
vt 0.718750 0.250000
vt 0.750000 0.250000
vt 0.218750 0.062500
vt 0.468750 0.281250
vt 0.281250 0.281250
vt 0.218750 0.031250
vt 0.031250 0.031250
vt 0.000000 0.031250
vt 0.687500 0.093750
vt 0.687500 0.218750
vt 0.562500 0.218750
vt 0.562500 0.093750
vt 0.312500 0.093750
vt 0.312500 0.218750
vt 0.437500 0.218750
vt 0.437500 0.093750
vt 0.187500 0.218750
vt 0.187500 0.093750
vt 0.062500 0.218750
vt 0.062500 0.093750
vt 0.187500 0.468750
vt 0.187500 0.343750
vt 0.062500 0.468750
vt 0.062500 0.343750
vt 0.687500 0.343750
vt 0.562500 0.343750
vt 0.562500 0.468750
vt 0.687500 0.468750
vt 0.437500 0.468750
vt 0.437500 0.343750
vn 0.000000 1.000000 0.000000
vn 0.000000 -1.000000 0.000000
vn -1.000000 -0.000000 -0.000000
vn 0.000000 0.000000 -1.000000
vn 1.000000 0.000000 0.000000
vn -0.000000 -0.000000 1.000000
vn 1.000000 -0.000000 0.000001
vn -0.000001 -0.000000 1.000000
vn -0.298470 0.000000 -0.954419
vn 0.954419 -0.000000 -0.298471
vn 0.000000 0.934219 -0.356700
vn 0.000000 -0.954419 -0.298471
vn -0.934218 -0.000000 -0.356701
vn 0.298471 -0.000000 -0.954419
vn 0.298471 0.954419 0.000000
vn 0.356700 -0.934219 0.000000
vn 0.356700 -0.000000 0.934219
vn -0.954419 -0.000000 -0.298471
vn 0.000000 -0.934219 -0.356700
vn 0.934219 0.000000 -0.356700
vn 0.000000 0.954419 -0.298471
vn -0.954419 -0.298472 -0.000001
vn -0.000000 -0.356700 0.934219
vn 0.934219 -0.356700 0.000000
vn 0.000000 -0.298470 -0.954419
vn 0.934219 0.356701 0.000000
vn 0.000000 0.298471 -0.954419
vn -0.954419 0.298471 0.000000
vn -0.000000 0.356700 0.934219
vn -0.356700 -0.934219 -0.000000
vn -0.298471 0.954419 0.000000
vn -0.356700 -0.000000 0.934219
s off
f 1/1/1 4/2/1 3/3/1
f 1/1/1 3/3/1 2/4/1
f 5/4/2 6/5/2 7/6/2
f 5/4/2 7/6/2 8/1/2
f 1/3/3 2/7/3 6/8/3
f 1/3/3 6/8/3 5/4/3
f 2/4/4 3/8/4 7/9/4
f 2/4/4 7/9/4 6/5/4
f 3/3/5 4/10/5 8/11/5
f 3/3/5 8/11/5 7/7/5
f 4/2/6 1/12/6 5/10/6
f 4/2/6 5/10/6 8/3/6
f 28/13/2 30/14/2 11/15/2
f 28/13/2 11/15/2 22/16/2
f 27/17/1 21/18/1 15/19/1
f 27/17/1 15/19/1 32/20/1
f 48/21/7 23/22/7 14/23/7
f 48/21/7 14/23/7 42/24/7
f 50/25/6 32/20/6 15/19/6
f 50/25/6 15/19/6 43/26/6
f 46/27/3 20/28/3 16/29/3
f 46/27/3 16/29/3 44/30/3
f 54/31/4 29/32/4 12/29/4
f 54/31/4 12/29/4 55/30/4
f 29/33/2 25/34/2 18/35/2
f 29/33/2 18/35/2 12/36/2
f 31/37/1 16/38/1 20/39/1
f 31/37/1 20/39/1 26/40/1
f 41/41/7 13/42/7 19/43/7
f 41/41/7 19/43/7 45/44/7
f 47/45/3 21/46/3 20/28/3
f 47/45/3 20/28/3 46/27/3
f 43/47/3 15/48/3 21/46/3
f 43/47/3 21/46/3 47/45/3
f 39/49/1 27/17/1 32/20/1
f 39/49/1 32/20/1 36/50/1
f 25/34/2 28/13/2 22/16/2
f 25/34/2 22/16/2 18/35/2
f 26/40/1 20/39/1 21/18/1
f 26/40/1 21/18/1 27/17/1
f 38/51/1 31/37/1 26/40/1
f 38/51/1 26/40/1 40/52/1
f 61/53/7 48/21/7 42/24/7
f 61/53/7 42/24/7 57/54/7
f 45/44/7 19/43/7 23/22/7
f 45/44/7 23/22/7 48/21/7
f 34/55/2 37/41/2 30/14/2
f 34/55/2 30/14/2 28/13/2
f 53/56/4 35/57/4 29/32/4
f 53/56/4 29/32/4 54/31/4
f 52/58/6 36/50/6 32/20/6
f 52/58/6 32/20/6 50/25/6
f 35/59/2 33/60/2 25/34/2
f 35/59/2 25/34/2 29/33/2
f 58/61/4 9/62/4 35/57/4
f 58/61/4 35/57/4 53/56/4
f 42/63/8 14/64/8 36/50/8
f 42/63/8 36/50/8 52/58/8
f 24/65/2 10/42/2 37/41/2
f 24/65/2 37/41/2 34/55/2
f 19/24/1 40/52/1 39/49/1
f 19/24/1 39/49/1 23/54/1
f 17/66/2 24/65/2 34/55/2
f 17/66/2 34/55/2 33/60/2
f 9/67/2 17/66/2 33/60/2
f 9/67/2 33/60/2 35/59/2
f 13/23/1 38/51/1 40/52/1
f 13/23/1 40/52/1 19/24/1
f 23/54/1 39/49/1 36/50/1
f 23/54/1 36/50/1 14/64/1
f 60/68/6 50/25/6 43/26/6
f 60/68/6 43/26/6 56/69/6
f 63/70/3 46/27/3 44/30/3
f 63/70/3 44/30/3 55/71/3
f 31/16/4 49/72/4 44/71/4
f 31/16/4 44/71/4 16/15/4
f 58/14/7 41/41/7 45/44/7
f 58/14/7 45/44/7 64/73/7
f 56/63/3 43/47/3 47/45/3
f 56/63/3 47/45/3 62/74/3
f 6/75/9 48/21/9 61/53/9
f 6/75/9 61/53/9 2/76/9
f 38/35/4 51/77/4 49/72/4
f 38/35/4 49/72/4 31/16/4
f 13/36/4 41/78/4 51/77/4
f 13/36/4 51/77/4 38/35/4
f 57/47/8 42/63/8 52/58/8
f 57/47/8 52/58/8 59/79/8
f 18/80/3 63/70/3 55/71/3
f 18/80/3 55/71/3 12/15/3
f 9/15/5 58/14/5 64/73/5
f 9/15/5 64/73/5 17/80/5
f 24/81/5 61/53/5 57/54/5
f 24/81/5 57/54/5 10/64/5
f 10/48/6 57/47/6 59/79/6
f 10/48/6 59/79/6 37/82/6
f 49/72/4 54/31/4 55/30/4
f 49/72/4 55/30/4 44/71/4
f 30/83/6 60/68/6 56/69/6
f 30/83/6 56/69/6 11/84/6
f 17/80/5 64/73/5 61/53/5
f 17/80/5 61/53/5 24/81/5
f 11/64/3 56/63/3 62/74/3
f 11/64/3 62/74/3 22/81/3
f 41/78/4 58/61/4 53/56/4
f 41/78/4 53/56/4 51/77/4
f 37/82/6 59/79/6 60/68/6
f 37/82/6 60/68/6 30/83/6
f 22/81/3 62/74/3 63/70/3
f 22/81/3 63/70/3 18/80/3
f 1/85/10 53/56/10 51/77/10
f 1/85/10 51/77/10 5/86/10
f 49/72/11 8/87/11 5/86/11
f 49/72/11 5/86/11 51/77/11
f 53/56/12 1/85/12 4/88/12
f 53/56/12 4/88/12 54/31/12
f 8/87/13 49/72/13 54/31/13
f 8/87/13 54/31/13 4/88/13
f 47/45/14 7/89/14 3/90/14
f 47/45/14 3/90/14 62/74/14
f 4/91/15 63/70/15 62/74/15
f 4/91/15 62/74/15 3/90/15
f 46/27/16 8/92/16 7/89/16
f 46/27/16 7/89/16 47/45/16
f 8/92/17 46/27/17 63/70/17
f 8/92/17 63/70/17 4/91/17
f 52/58/18 6/93/18 2/94/18
f 52/58/18 2/94/18 59/79/18
f 50/25/19 7/95/19 6/93/19
f 50/25/19 6/93/19 52/58/19
f 7/95/20 50/25/20 60/68/20
f 7/95/20 60/68/20 3/96/20
f 3/96/21 60/68/21 59/79/21
f 3/96/21 59/79/21 2/94/21
f 40/52/22 5/97/22 6/98/22
f 40/52/22 6/98/22 39/49/22
f 26/40/23 8/99/23 5/97/23
f 26/40/23 5/97/23 40/52/23
f 8/99/24 26/40/24 27/17/24
f 8/99/24 27/17/24 7/100/24
f 7/100/25 27/17/25 39/49/25
f 7/100/25 39/49/25 6/98/25
f 25/34/26 4/101/26 3/102/26
f 25/34/26 3/102/26 28/13/26
f 28/13/27 3/102/27 2/103/27
f 28/13/27 2/103/27 34/55/27
f 1/104/28 33/60/28 34/55/28
f 1/104/28 34/55/28 2/103/28
f 33/60/29 1/104/29 4/101/29
f 33/60/29 4/101/29 25/34/29
f 5/105/30 45/44/30 48/21/30
f 5/105/30 48/21/30 6/75/30
f 64/73/31 1/106/31 2/76/31
f 64/73/31 2/76/31 61/53/31
f 1/106/32 64/73/32 45/44/32
f 1/106/32 45/44/32 5/105/32
